<?xml version="1.0" encoding="UTF-8"?>
<!DOCTYPE svg PUBLIC "-//W3C//DTD SVG 1.1//EN" "http://www.w3.org/Graphics/SVG/1.1/DTD/svg11.dtd">
<svg xmlns="http://www.w3.org/2000/svg" version="1.1" width="512px" height="512px" style="shape-rendering:geometricPrecision; text-rendering:geometricPrecision; image-rendering:optimizeQuality; fill-rule:evenodd; clip-rule:evenodd" xmlns:xlink="http://www.w3.org/1999/xlink">
<g><path style="opacity:0.999" fill="#000001" d="M 170.5,326.5 C 170.5,326.833 170.5,327.167 170.5,327.5C 170.685,329.196 171.519,330.529 173,331.5C 207.117,330.146 241.284,330.48 275.5,332.5C 278.956,334.782 281.456,337.782 283,341.5C 283.333,341.167 283.667,340.833 284,340.5C 284.5,341.667 285.333,342.5 286.5,343C 286.167,343.333 285.833,343.667 285.5,344C 287.32,344.979 288.487,346.479 289,348.5C 289.333,348.167 289.667,347.833 290,347.5C 291.615,348.386 293.115,349.386 294.5,350.5C 294.833,350.5 295.167,350.5 295.5,350.5C 301.167,357.833 306.833,365.167 312.5,372.5C 312.5,373.5 312.5,374.5 312.5,375.5C 260.5,375.5 208.5,375.5 156.5,375.5C 156.207,371.207 153.874,368.874 149.5,368.5C 148.513,365.854 147.513,363.188 146.5,360.5C 140.986,355.805 138.153,349.805 138,342.5C 137.237,269.55 137.403,196.717 138.5,124C 138.302,121.815 137.302,120.315 135.5,119.5C 134.167,119.167 132.833,118.833 131.5,118.5C 130.833,118.167 130.167,117.833 129.5,117.5C 128.833,116.5 128.167,115.5 127.5,114.5C 126.377,113.243 125.711,113.576 125.5,115.5C 124.861,114.903 124.528,114.07 124.5,113C 125.27,110.931 126.603,109.265 128.5,108C 142,99.1667 155.5,90.3333 169,81.5C 169.167,163.334 169.667,245.001 170.5,326.5 Z"/></g>
<g><path style="opacity:0.012" fill="#070c0e" d="M 281.5,315.5 C 252.329,315.169 223.329,315.502 194.5,316.5C 190.5,316.5 186.5,316.5 182.5,316.5C 182.5,277.167 182.5,237.833 182.5,198.5C 182.823,192.31 182.49,186.31 181.5,180.5C 181.833,145.494 181.5,110.494 180.5,75.5C 179.264,74.7542 177.93,74.4208 176.5,74.5C 178.049,72.5946 179.882,72.2613 182,73.5C 183.165,154.163 183.665,234.829 183.5,315.5C 216.324,314.231 248.991,314.231 281.5,315.5 Z"/></g>
<g><path style="opacity:0.068" fill="#110c05" d="M 248.5,161.5 C 247.373,160.878 246.373,160.045 245.5,159C 229.837,158.5 214.17,158.333 198.5,158.5C 197.833,158.833 197.167,159.167 196.5,159.5C 204.472,158.169 212.806,157.502 221.5,157.5C 229.833,157.667 238.167,157.833 246.5,158C 247.823,158.816 248.489,159.983 248.5,161.5 Z"/></g>
<g><path style="opacity:0.996" fill="#052132" d="M 131.5,118.5 C 132.833,118.833 134.167,119.167 135.5,119.5C 136.327,196.46 136.827,273.46 137,350.5C 137.791,351.745 138.291,353.078 138.5,354.5C 137.115,353.426 135.949,352.093 135,350.5C 134.833,273.999 134.333,197.666 133.5,121.5C 132.833,120.5 132.167,119.5 131.5,118.5 Z"/></g>
<g><path style="opacity:0.978" fill="#4b3a21" d="M 327.5,159.5 C 344.833,158.167 362.167,158.167 379.5,159.5C 378.209,159.263 377.209,159.596 376.5,160.5C 360.833,160.5 345.167,160.5 329.5,160.5C 328.833,160.167 328.167,159.833 327.5,159.5 Z"/></g>
<g><path style="opacity:0.996" fill="#664f1e" d="M 329.5,161.5 C 329.5,161.167 329.5,160.833 329.5,160.5C 345.167,160.5 360.833,160.5 376.5,160.5C 376.5,160.833 376.5,161.167 376.5,161.5C 375.833,161.5 375.5,161.833 375.5,162.5C 362.656,162.171 349.989,162.505 337.5,163.5C 335.379,163.675 333.379,163.341 331.5,162.5C 331.158,161.662 330.492,161.328 329.5,161.5 Z"/></g>
<g><path style="opacity:0.996" fill="#bbfdfe" d="M 176.5,78.5 C 178.493,113.151 179.16,148.151 178.5,183.5C 178.5,229.167 178.5,274.833 178.5,320.5C 212.833,320.5 247.167,320.5 281.5,320.5C 281.833,320.5 282.167,320.5 282.5,320.5C 283.6,321.605 284.267,322.938 284.5,324.5C 283.078,324.25 282.078,323.417 281.5,322C 278.5,321.833 275.5,321.667 272.5,321.5C 241.458,321.958 210.458,322.792 179.5,324C 212.251,325.152 244.917,325.986 277.5,326.5C 242.5,326.5 207.5,326.5 172.5,326.5C 171.851,244.392 172.517,162.392 174.5,80.5C 174.833,79.5 175.5,78.8333 176.5,78.5 Z"/></g>
<g><path style="opacity:0.999" fill="#cffefe" d="M 173.5,85.5 C 174.5,85.5 175.5,85.5 176.5,85.5C 177.007,128.664 177.34,171.831 177.5,215C 177.648,245.872 177.148,276.705 176,307.5C 174.939,302.896 174.273,298.229 174,293.5C 173.5,224.167 173.333,154.834 173.5,85.5 Z"/></g>
<g><path style="opacity:0.996" fill="#dfd1a5" d="M 203.5,163.5 C 203.5,163.167 203.5,162.833 203.5,162.5C 217.541,161.851 231.208,162.518 244.5,164.5C 244.167,164.5 243.833,164.5 243.5,164.5C 231.167,163.167 218.833,163.167 206.5,164.5C 205.391,164.443 204.391,164.11 203.5,163.5 Z"/></g>
<g><path style="opacity:0.996" fill="#254e59" d="M 176.5,74.5 C 177.93,74.4208 179.264,74.7542 180.5,75.5C 181.5,110.494 181.833,145.494 181.5,180.5C 181.299,194.345 180.633,208.011 179.5,221.5C 179.5,208.833 179.5,196.167 179.5,183.5C 179.5,148.167 179.5,112.833 179.5,77.5C 178.209,77.2627 177.209,77.596 176.5,78.5C 175.5,78.8333 174.833,79.5 174.5,80.5C 173.542,80.9528 172.708,81.6195 172,82.5C 171.5,164.166 171.333,245.833 171.5,327.5C 171.167,327.5 170.833,327.5 170.5,327.5C 170.5,327.167 170.5,326.833 170.5,326.5C 170.333,244.499 170.5,162.499 171,80.5C 171.513,79.4734 172.013,78.4734 172.5,77.5C 173.262,75.7376 174.596,74.7376 176.5,74.5 Z"/></g>
<g><path style="opacity:0.996" fill="#509cab" d="M 176.5,78.5 C 177.209,77.596 178.209,77.2627 179.5,77.5C 179.5,112.833 179.5,148.167 179.5,183.5C 179.167,183.5 178.833,183.5 178.5,183.5C 179.16,148.151 178.493,113.151 176.5,78.5 Z"/></g>
<g><path style="opacity:0.231" fill="#252119" d="M 248.5,161.5 C 250.587,162.585 251.92,164.251 252.5,166.5C 250.413,165.415 249.08,163.749 248.5,161.5 Z"/></g>
<g><path style="opacity:0.023" fill="#090806" d="M 380.5,159.5 C 380.167,159.5 379.833,159.5 379.5,159.5C 362.167,158.167 344.833,158.167 327.5,159.5C 326.667,194.664 326.167,229.998 326,265.5C 325.292,264.619 324.458,263.953 323.5,263.5C 323.573,261.973 322.906,260.973 321.5,260.5C 321.5,259.833 321.5,259.167 321.5,258.5C 322.482,259.141 323.482,259.807 324.5,260.5C 325.333,226.505 325.833,192.505 326,158.5C 327,157.833 328,157.167 329,156.5C 344.958,157.821 360.958,157.821 377,156.5C 378.95,156.707 380.116,157.707 380.5,159.5 Z"/></g>
<g><path style="opacity:1" fill="#fbfde7" d="M 206.5,164.5 C 218.833,163.167 231.167,163.167 243.5,164.5C 243.5,165.5 243.5,166.5 243.5,167.5C 232.833,167.5 222.167,167.5 211.5,167.5C 211.007,169.806 210.674,172.139 210.5,174.5C 209.71,175.609 209.21,176.942 209,178.5C 208.5,186.827 208.334,195.16 208.5,203.5C 208.167,203.5 207.833,203.5 207.5,203.5C 207.5,198.833 207.5,194.167 207.5,189.5C 206.92,181.739 207.92,174.239 210.5,167C 217.86,166.617 225.193,165.95 232.5,165C 223.84,164.5 215.173,164.334 206.5,164.5 Z"/></g>
<g><path style="opacity:1" fill="#fefe97" d="M 375.5,163.5 C 375.665,166.85 375.498,170.183 375,173.5C 374.626,172.584 374.126,171.75 373.5,171C 362.505,170.5 351.505,170.333 340.5,170.5C 340.768,172.099 340.434,173.432 339.5,174.5C 339.261,172.533 339.594,170.699 340.5,169C 351.866,168.768 363.199,168.268 374.5,167.5C 374.232,165.901 374.566,164.568 375.5,163.5 Z"/></g>
<g><path style="opacity:0.209" fill="#202829" d="M 198.5,158.5 C 198.5,158.833 198.5,159.167 198.5,159.5C 197.507,194.427 197.174,229.427 197.5,264.5C 197.167,264.5 196.833,264.5 196.5,264.5C 196.5,246.167 196.5,227.833 196.5,209.5C 195.167,192.833 195.167,176.167 196.5,159.5C 197.167,159.167 197.833,158.833 198.5,158.5 Z"/></g>
<g><path style="opacity:1" fill="#f9fd9a" d="M 247.5,173.5 C 246.373,172.878 245.373,172.045 244.5,171C 235.78,170.161 227.113,170.495 218.5,172C 214.395,173.108 211.562,175.608 210,179.5C 209.5,191.495 209.333,203.495 209.5,215.5C 208.517,211.702 208.183,207.702 208.5,203.5C 208.334,195.16 208.5,186.827 209,178.5C 209.21,176.942 209.71,175.609 210.5,174.5C 211.058,172.407 212.391,170.907 214.5,170C 224.833,169.333 235.167,169.333 245.5,170C 246.823,170.816 247.489,171.983 247.5,173.5 Z"/></g>
<g><path style="opacity:0.998" fill="#fdfe7f" d="M 247.5,173.5 C 249.463,174.96 251.296,176.627 253,178.5C 254.992,181.983 257.158,185.316 259.5,188.5C 254.503,184.336 250.003,179.669 246,174.5C 245.241,176.635 243.741,177.968 241.5,178.5C 234.371,178.859 227.204,178.859 220,178.5C 217.595,179.274 215.095,179.774 212.5,180C 212,180.5 211.5,181 211,181.5C 210.5,189.493 210.334,197.493 210.5,205.5C 210.5,208.833 210.5,212.167 210.5,215.5C 210.167,215.5 209.833,215.5 209.5,215.5C 209.333,203.495 209.5,191.495 210,179.5C 211.562,175.608 214.395,173.108 218.5,172C 227.113,170.495 235.78,170.161 244.5,171C 245.373,172.045 246.373,172.878 247.5,173.5 Z"/></g>
<g><path style="opacity:0.996" fill="#5c481f" d="M 198.5,159.5 C 198.5,159.167 198.5,158.833 198.5,158.5C 214.17,158.333 229.837,158.5 245.5,159C 246.373,160.045 247.373,160.878 248.5,161.5C 249.08,163.749 250.413,165.415 252.5,166.5C 251.995,170.163 253.495,172.497 257,173.5C 257.44,175.866 257.94,178.199 258.5,180.5C 254.206,174.871 249.539,169.537 244.5,164.5C 231.208,162.518 217.541,161.851 203.5,162.5C 202.391,162.443 201.391,162.11 200.5,161.5C 200.5,160.167 199.833,159.5 198.5,159.5 Z"/></g>
<g><path style="opacity:0.997" fill="#fefd7d" d="M 376.5,161.5 C 377.498,184.994 377.831,208.661 377.5,232.5C 376.833,232.833 376.167,233.167 375.5,233.5C 375.5,230.833 375.5,228.167 375.5,225.5C 375.5,222.5 375.5,219.5 375.5,216.5C 375.5,210.833 375.5,205.167 375.5,199.5C 375.552,192.794 375.052,186.128 374,179.5C 373.849,176.881 373.015,174.547 371.5,172.5C 367.634,173.985 363.634,174.985 359.5,175.5C 355.545,175.639 351.545,175.472 347.5,175C 344.274,177.064 341.608,179.564 339.5,182.5C 339.5,179.833 339.5,177.167 339.5,174.5C 340.434,173.432 340.768,172.099 340.5,170.5C 351.505,170.333 362.505,170.5 373.5,171C 374.126,171.75 374.626,172.584 375,173.5C 375.498,170.183 375.665,166.85 375.5,163.5C 375.5,163.167 375.5,162.833 375.5,162.5C 375.5,161.833 375.833,161.5 376.5,161.5 Z"/></g>
<g><path style="opacity:0.998" fill="#fefb66" d="M 375.5,199.5 C 374.442,198.4 373.608,197.066 373,195.5C 372.667,195.833 372.333,196.167 372,196.5C 370.312,194.955 368.312,193.955 366,193.5C 359.05,194.831 351.216,196.665 342.5,199C 340.714,200.196 339.381,201.696 338.5,203.5C 338.24,196.443 338.573,189.443 339.5,182.5C 341.608,179.564 344.274,177.064 347.5,175C 351.545,175.472 355.545,175.639 359.5,175.5C 363.634,174.985 367.634,173.985 371.5,172.5C 373.015,174.547 373.849,176.881 374,179.5C 375.052,186.128 375.552,192.794 375.5,199.5 Z"/></g>
<g><path style="opacity:1" fill="#eafcfa" d="M 203.5,163.5 C 204.391,164.11 205.391,164.443 206.5,164.5C 215.173,164.334 223.84,164.5 232.5,165C 225.193,165.95 217.86,166.617 210.5,167C 207.92,174.239 206.92,181.739 207.5,189.5C 205.905,191.111 204.739,193.111 204,195.5C 203.539,187.331 203.039,179.164 202.5,171C 202.503,168.31 202.836,165.81 203.5,163.5 Z"/></g>
<g><path style="opacity:0.996" fill="#4b3b1e" d="M 252.5,166.5 C 258.594,172.926 263.927,179.926 268.5,187.5C 267.518,186.859 266.518,186.193 265.5,185.5C 264.614,186.325 264.281,187.325 264.5,188.5C 262.147,186.14 260.147,183.473 258.5,180.5C 257.94,178.199 257.44,175.866 257,173.5C 253.495,172.497 251.995,170.163 252.5,166.5 Z"/></g>
<g><path style="opacity:1" fill="#f9f6c3" d="M 243.5,164.5 C 243.833,164.5 244.167,164.5 244.5,164.5C 249.539,169.537 254.206,174.871 258.5,180.5C 260.147,183.473 262.147,186.14 264.5,188.5C 269.09,194.689 273.424,201.022 277.5,207.5C 275.088,207.306 274.088,205.973 274.5,203.5C 273.5,203.5 272.5,203.5 271.5,203.5C 270.396,201.611 269.063,199.945 267.5,198.5C 265.241,194.9 262.574,191.567 259.5,188.5C 257.158,185.316 254.992,181.983 253,178.5C 251.296,176.627 249.463,174.96 247.5,173.5C 247.489,171.983 246.823,170.816 245.5,170C 235.167,169.333 224.833,169.333 214.5,170C 212.391,170.907 211.058,172.407 210.5,174.5C 210.674,172.139 211.007,169.806 211.5,167.5C 222.167,167.5 232.833,167.5 243.5,167.5C 243.5,166.5 243.5,165.5 243.5,164.5 Z"/></g>
<g><path style="opacity:0.997" fill="#fefd68" d="M 259.5,188.5 C 262.574,191.567 265.241,194.9 267.5,198.5C 267.851,200.869 268.018,203.203 268,205.5C 267.333,204.833 266.667,204.167 266,203.5C 263.519,204.022 261.186,204.022 259,203.5C 254.794,200.861 250.627,200.194 246.5,201.5C 245.5,200.833 244.5,200.167 243.5,199.5C 235.872,200.476 227.372,201.476 218,202.5C 217.667,202.167 217.333,201.833 217,201.5C 214.589,202.565 212.422,203.899 210.5,205.5C 210.334,197.493 210.5,189.493 211,181.5C 211.5,181 212,180.5 212.5,180C 215.095,179.774 217.595,179.274 220,178.5C 227.204,178.859 234.371,178.859 241.5,178.5C 243.741,177.968 245.241,176.635 246,174.5C 250.003,179.669 254.503,184.336 259.5,188.5 Z"/></g>
<g><path style="opacity:1" fill="#f5f2d2" d="M 337.5,163.5 C 349.989,162.505 362.656,162.171 375.5,162.5C 375.5,162.833 375.5,163.167 375.5,163.5C 374.566,164.568 374.232,165.901 374.5,167.5C 363.199,168.268 351.866,168.768 340.5,169C 339.594,170.699 339.261,172.533 339.5,174.5C 338.698,175.952 338.198,177.618 338,179.5C 337.5,188.16 337.334,196.827 337.5,205.5C 337.5,213.833 337.5,222.167 337.5,230.5C 337.5,237.5 337.5,244.5 337.5,251.5C 337.5,257.167 337.5,262.833 337.5,268.5C 337.5,272.833 337.5,277.167 337.5,281.5C 333.253,285.351 331.253,284.018 331.5,277.5C 332.158,278.398 332.824,279.398 333.5,280.5C 334.333,279.5 335.167,278.5 336,277.5C 336.053,241.14 336.72,204.807 338,168.5C 349.581,166.534 361.414,165.867 373.5,166.5C 373.5,165.5 373.5,164.5 373.5,163.5C 361.5,163.5 349.5,163.5 337.5,163.5 Z"/></g>
<g><path style="opacity:1" fill="#fcfbac" d="M 339.5,174.5 C 339.5,177.167 339.5,179.833 339.5,182.5C 338.573,189.443 338.24,196.443 338.5,203.5C 338.5,204.167 338.5,204.833 338.5,205.5C 338.167,205.5 337.833,205.5 337.5,205.5C 337.334,196.827 337.5,188.16 338,179.5C 338.198,177.618 338.698,175.952 339.5,174.5 Z"/></g>
<g><path style="opacity:0.992" fill="#3e3120" d="M 268.5,187.5 C 272.262,190.929 275.262,194.929 277.5,199.5C 271.601,197.711 268.601,193.711 268.5,187.5 Z"/></g>
<g><path style="opacity:1" fill="#effbfa" d="M 331.5,162.5 C 333.379,163.341 335.379,163.675 337.5,163.5C 349.5,163.5 361.5,163.5 373.5,163.5C 373.5,164.5 373.5,165.5 373.5,166.5C 361.414,165.867 349.581,166.534 338,168.5C 336.72,204.807 336.053,241.14 336,277.5C 335.167,278.5 334.333,279.5 333.5,280.5C 332.824,279.398 332.158,278.398 331.5,277.5C 331.5,276.833 331.167,276.5 330.5,276.5C 330.5,275.833 330.5,275.167 330.5,274.5C 330.5,271.5 330.5,268.5 330.5,265.5C 330.168,230.996 330.502,196.663 331.5,162.5 Z"/></g>
<g><path style="opacity:0.996" fill="#92d2da" d="M 174.5,80.5 C 172.517,162.392 171.851,244.392 172.5,326.5C 207.5,326.5 242.5,326.5 277.5,326.5C 277.5,326.833 277.5,327.167 277.5,327.5C 242.167,327.5 206.833,327.5 171.5,327.5C 171.333,245.833 171.5,164.166 172,82.5C 172.708,81.6195 173.542,80.9528 174.5,80.5 Z"/></g>
<g><path style="opacity:0.996" fill="#feea61" d="M 375.5,199.5 C 375.5,205.167 375.5,210.833 375.5,216.5C 374.686,214.369 374.186,212.036 374,209.5C 367.834,205.741 361.501,205.075 355,207.5C 351.342,206.164 347.342,206.164 343,207.5C 341.213,207.241 339.713,206.575 338.5,205.5C 338.5,204.833 338.5,204.167 338.5,203.5C 339.381,201.696 340.714,200.196 342.5,199C 351.216,196.665 359.05,194.831 366,193.5C 368.312,193.955 370.312,194.955 372,196.5C 372.333,196.167 372.667,195.833 373,195.5C 373.608,197.066 374.442,198.4 375.5,199.5 Z"/></g>
<g><path style="opacity:0.082" fill="#19160e" d="M 277.5,199.5 C 279.587,200.585 280.92,202.251 281.5,204.5C 280.167,203.5 278.833,202.5 277.5,201.5C 277.5,200.833 277.5,200.167 277.5,199.5 Z"/></g>
<g><path style="opacity:0.569" fill="#434d4e" d="M 327.5,159.5 C 327.832,196.004 327.498,232.337 326.5,268.5C 325.11,267.101 324.11,265.434 323.5,263.5C 324.458,263.953 325.292,264.619 326,265.5C 326.167,229.998 326.667,194.664 327.5,159.5 Z"/></g>
<g><path style="opacity:0.996" fill="#fef265" d="M 267.5,198.5 C 269.063,199.945 270.396,201.611 271.5,203.5C 273.859,206.851 276.192,210.185 278.5,213.5C 277.883,213.389 277.383,213.056 277,212.5C 276.751,213.624 276.251,214.624 275.5,215.5C 272.943,214.593 270.443,213.593 268,212.5C 265.416,215.468 263.416,215.135 262,211.5C 250.247,210.934 238.58,210.934 227,211.5C 225.874,210.056 224.374,209.39 222.5,209.5C 218.851,210.33 215.185,210.996 211.5,211.5C 211.768,213.099 211.434,214.432 210.5,215.5C 210.5,212.167 210.5,208.833 210.5,205.5C 212.422,203.899 214.589,202.565 217,201.5C 217.333,201.833 217.667,202.167 218,202.5C 227.372,201.476 235.872,200.476 243.5,199.5C 244.5,200.167 245.5,200.833 246.5,201.5C 250.627,200.194 254.794,200.861 259,203.5C 261.186,204.022 263.519,204.022 266,203.5C 266.667,204.167 267.333,204.833 268,205.5C 268.018,203.203 267.851,200.869 267.5,198.5 Z"/></g>
<g><path style="opacity:0.005" fill="#040404" d="M 196.5,209.5 C 196.5,227.833 196.5,246.167 196.5,264.5C 196.5,277.167 196.5,289.833 196.5,302.5C 212.167,302.5 227.833,302.5 243.5,302.5C 246.167,302.5 248.833,302.5 251.5,302.5C 240.315,303.208 228.981,303.874 217.5,304.5C 210.168,304.166 202.835,303.833 195.5,303.5C 195.013,302.554 194.68,301.554 194.5,300.5C 195.152,270.02 195.818,239.687 196.5,209.5 Z"/></g>
<g><path style="opacity:0.996" fill="#fde564" d="M 278.5,213.5 C 281.741,217.641 284.741,221.974 287.5,226.5C 281.72,224.342 275.887,222.342 270,220.5C 269.549,222.929 268.715,223.096 267.5,221C 264.901,220.231 262.401,220.398 260,221.5C 258.333,220.833 256.667,220.167 255,219.5C 251.54,219.732 248.04,220.066 244.5,220.5C 243.063,217.956 241.563,217.956 240,220.5C 239,219.833 238,219.167 237,218.5C 233.667,217.167 230.333,217.167 227,218.5C 225.667,217.833 224.333,217.167 223,216.5C 219.366,217.573 215.866,218.24 212.5,218.5C 210.946,220.933 210.28,223.6 210.5,226.5C 210.167,226.5 209.833,226.5 209.5,226.5C 209.5,222.833 209.5,219.167 209.5,215.5C 209.833,215.5 210.167,215.5 210.5,215.5C 211.434,214.432 211.768,213.099 211.5,211.5C 215.185,210.996 218.851,210.33 222.5,209.5C 224.374,209.39 225.874,210.056 227,211.5C 238.58,210.934 250.247,210.934 262,211.5C 263.416,215.135 265.416,215.468 268,212.5C 270.443,213.593 272.943,214.593 275.5,215.5C 276.251,214.624 276.751,213.624 277,212.5C 277.383,213.056 277.883,213.389 278.5,213.5 Z"/></g>
<g><path style="opacity:0.996" fill="#fad05b" d="M 338.5,205.5 C 339.713,206.575 341.213,207.241 343,207.5C 347.342,206.164 351.342,206.164 355,207.5C 361.501,205.075 367.834,205.741 374,209.5C 374.186,212.036 374.686,214.369 375.5,216.5C 375.5,219.5 375.5,222.5 375.5,225.5C 375.167,225.5 374.833,225.5 374.5,225.5C 374.714,223.856 374.38,222.356 373.5,221C 371.129,220.265 368.795,219.432 366.5,218.5C 357.275,218.943 347.941,218.943 338.5,218.5C 338.5,214.167 338.5,209.833 338.5,205.5 Z"/></g>
<g><path style="opacity:0.996" fill="#4c4011" d="M 268.5,187.5 C 268.601,193.711 271.601,197.711 277.5,199.5C 277.5,200.167 277.5,200.833 277.5,201.5C 291.392,221.558 306.058,241.225 321.5,260.5C 322.906,260.973 323.573,261.973 323.5,263.5C 324.11,265.434 325.11,267.101 326.5,268.5C 327.475,270.795 328.808,272.795 330.5,274.5C 330.5,275.167 330.5,275.833 330.5,276.5C 330.19,277.738 329.69,277.738 329,276.5C 312.74,252.752 295.573,229.752 277.5,207.5C 273.424,201.022 269.09,194.689 264.5,188.5C 264.281,187.325 264.614,186.325 265.5,185.5C 266.518,186.193 267.518,186.859 268.5,187.5 Z"/></g>
<g><path style="opacity:0.997" fill="#fdd961" d="M 287.5,226.5 C 290.933,229.601 293.6,233.268 295.5,237.5C 292.906,237.306 290.906,235.639 289.5,232.5C 287.018,231.103 284.352,230.269 281.5,230C 273.263,229.589 265.096,228.756 257,227.5C 252.866,228.196 248.7,228.863 244.5,229.5C 239.758,226.057 234.592,224.724 229,225.5C 223.589,222.739 218.089,222.239 212.5,224C 211.915,225.302 211.249,226.469 210.5,227.5C 210.5,227.167 210.5,226.833 210.5,226.5C 210.28,223.6 210.946,220.933 212.5,218.5C 215.866,218.24 219.366,217.573 223,216.5C 224.333,217.167 225.667,217.833 227,218.5C 230.333,217.167 233.667,217.167 237,218.5C 238,219.167 239,219.833 240,220.5C 241.563,217.956 243.063,217.956 244.5,220.5C 248.04,220.066 251.54,219.732 255,219.5C 256.667,220.167 258.333,220.833 260,221.5C 262.401,220.398 264.901,220.231 267.5,221C 268.715,223.096 269.549,222.929 270,220.5C 275.887,222.342 281.72,224.342 287.5,226.5 Z"/></g>
<g><path style="opacity:0.988" fill="#383325" d="M 277.5,201.5 C 278.833,202.5 280.167,203.5 281.5,204.5C 295.309,222.105 308.643,240.105 321.5,258.5C 321.5,259.167 321.5,259.833 321.5,260.5C 306.058,241.225 291.392,221.558 277.5,201.5 Z"/></g>
<g><path style="opacity:0.996" fill="#508290" d="M 329.5,161.5 C 330.492,161.328 331.158,161.662 331.5,162.5C 330.502,196.663 330.168,230.996 330.5,265.5C 329.502,231.004 329.168,196.337 329.5,161.5 Z"/></g>
<g><path style="opacity:0.997" fill="#e8b851" d="M 338.5,218.5 C 347.941,218.943 357.275,218.943 366.5,218.5C 368.795,219.432 371.129,220.265 373.5,221C 374.38,222.356 374.714,223.856 374.5,225.5C 374.5,226.833 374.5,228.167 374.5,229.5C 362.857,227.834 351.19,227.167 339.5,227.5C 338.593,224.579 338.26,221.579 338.5,218.5 Z"/></g>
<g><path style="opacity:0.998" fill="#f7cc5c" d="M 295.5,237.5 C 295.209,238.649 294.376,239.316 293,239.5C 291.276,239.045 289.776,238.212 288.5,237C 278.392,235.624 268.392,235.124 258.5,235.5C 254.686,234.784 252.019,236.118 250.5,239.5C 248.833,238.167 247.167,236.833 245.5,235.5C 245.288,233.616 244.288,232.283 242.5,231.5C 241.52,234.086 241.187,236.753 241.5,239.5C 240.691,238.531 239.691,237.698 238.5,237C 230.552,234.168 222.552,232.668 214.5,232.5C 212.971,232.529 211.804,233.196 211,234.5C 210.503,232.19 210.337,229.857 210.5,227.5C 211.249,226.469 211.915,225.302 212.5,224C 218.089,222.239 223.589,222.739 229,225.5C 234.592,224.724 239.758,226.057 244.5,229.5C 248.7,228.863 252.866,228.196 257,227.5C 265.096,228.756 273.263,229.589 281.5,230C 284.352,230.269 287.018,231.103 289.5,232.5C 290.906,235.639 292.906,237.306 295.5,237.5 Z"/></g>
<g><path style="opacity:0.998" fill="#c9fdfc" d="M 200.5,161.5 C 201.391,162.11 202.391,162.443 203.5,162.5C 203.5,162.833 203.5,163.167 203.5,163.5C 202.836,165.81 202.503,168.31 202.5,171C 203.039,179.164 203.539,187.331 204,195.5C 204.739,193.111 205.905,191.111 207.5,189.5C 207.5,194.167 207.5,198.833 207.5,203.5C 207.5,209.833 207.5,216.167 207.5,222.5C 207.5,236.167 207.5,249.833 207.5,263.5C 207.5,272.5 207.5,281.5 207.5,290.5C 205.947,292.385 203.947,293.385 201.5,293.5C 201.832,249.997 201.499,206.663 200.5,163.5C 200.5,162.833 200.5,162.167 200.5,161.5 Z"/></g>
<g><path style="opacity:0.996" fill="#0d2a34" d="M 327.5,159.5 C 328.167,159.833 328.833,160.167 329.5,160.5C 329.5,160.833 329.5,161.167 329.5,161.5C 329.168,196.337 329.502,231.004 330.5,265.5C 330.5,268.5 330.5,271.5 330.5,274.5C 328.808,272.795 327.475,270.795 326.5,268.5C 327.498,232.337 327.832,196.004 327.5,159.5 Z"/></g>
<g><path style="opacity:1" fill="#aac585" d="M 207.5,203.5 C 207.833,203.5 208.167,203.5 208.5,203.5C 208.183,207.702 208.517,211.702 209.5,215.5C 209.5,219.167 209.5,222.833 209.5,226.5C 209.5,228.833 209.5,231.167 209.5,233.5C 208.833,229.833 208.167,226.167 207.5,222.5C 207.5,216.167 207.5,209.833 207.5,203.5 Z"/></g>
<g><path style="opacity:0.998" fill="#cea147" d="M 337.5,205.5 C 337.833,205.5 338.167,205.5 338.5,205.5C 338.5,209.833 338.5,214.167 338.5,218.5C 338.26,221.579 338.593,224.579 339.5,227.5C 351.19,227.167 362.857,227.834 374.5,229.5C 374.5,228.167 374.5,226.833 374.5,225.5C 374.833,225.5 375.167,225.5 375.5,225.5C 375.5,228.167 375.5,230.833 375.5,233.5C 375.5,236.167 375.5,238.833 375.5,241.5C 374.596,240.791 374.263,239.791 374.5,238.5C 362.42,238.812 350.42,238.479 338.5,237.5C 338.802,234.941 338.468,232.607 337.5,230.5C 337.5,222.167 337.5,213.833 337.5,205.5 Z"/></g>
<g><path style="opacity:0.998" fill="#ddb353" d="M 209.5,226.5 C 209.833,226.5 210.167,226.5 210.5,226.5C 210.5,226.833 210.5,227.167 210.5,227.5C 210.337,229.857 210.503,232.19 211,234.5C 211.804,233.196 212.971,232.529 214.5,232.5C 222.552,232.668 230.552,234.168 238.5,237C 239.691,237.698 240.691,238.531 241.5,239.5C 241.5,240.5 241.5,241.5 241.5,242.5C 240.078,242.25 239.078,241.417 238.5,240C 232.549,240.054 226.549,239.22 220.5,237.5C 217.198,237.849 214.031,237.849 211,237.5C 210.51,238.793 210.343,240.127 210.5,241.5C 210.167,241.5 209.833,241.5 209.5,241.5C 209.5,238.833 209.5,236.167 209.5,233.5C 209.5,231.167 209.5,228.833 209.5,226.5 Z"/></g>
<g><path style="opacity:1" fill="#fbeea2" d="M 245.5,235.5 C 244.85,235.196 244.183,234.863 243.5,234.5C 242.833,237.642 242.166,240.642 241.5,243.5C 241.5,243.167 241.5,242.833 241.5,242.5C 241.5,241.5 241.5,240.5 241.5,239.5C 241.187,236.753 241.52,234.086 242.5,231.5C 244.288,232.283 245.288,233.616 245.5,235.5 Z"/></g>
<g><path style="opacity:1" fill="#ecbe57" d="M 295.5,237.5 C 297.262,238.262 298.262,239.596 298.5,241.5C 297.047,243.229 295.047,244.229 292.5,244.5C 285.031,242.267 277.864,242.6 271,245.5C 268.791,243.294 266.291,242.96 263.5,244.5C 259.843,243.752 256.177,243.085 252.5,242.5C 251.094,242.027 250.427,241.027 250.5,239.5C 252.019,236.118 254.686,234.784 258.5,235.5C 268.392,235.124 278.392,235.624 288.5,237C 289.776,238.212 291.276,239.045 293,239.5C 294.376,239.316 295.209,238.649 295.5,237.5 Z"/></g>
<g><path style="opacity:0.998" fill="#af8536" d="M 338.5,237.5 C 350.42,238.479 362.42,238.812 374.5,238.5C 374.263,239.791 374.596,240.791 375.5,241.5C 375.5,244.167 375.5,246.833 375.5,249.5C 374.566,248.432 374.232,247.099 374.5,245.5C 370.563,245.207 366.73,245.54 363,246.5C 360.959,245.248 358.625,244.581 356,244.5C 350.835,245.186 345.668,245.353 340.5,245C 338.709,242.894 338.042,240.394 338.5,237.5 Z"/></g>
<g><path style="opacity:0.996" fill="#678b69" d="M 207.5,222.5 C 208.167,226.167 208.833,229.833 209.5,233.5C 209.5,236.167 209.5,238.833 209.5,241.5C 209.5,242.833 209.5,244.167 209.5,245.5C 208.511,250.975 208.178,256.642 208.5,262.5C 208.5,262.833 208.5,263.167 208.5,263.5C 208.167,263.5 207.833,263.5 207.5,263.5C 207.5,249.833 207.5,236.167 207.5,222.5 Z"/></g>
<g><path style="opacity:0.937" fill="#061f27" d="M 198.5,159.5 C 199.833,159.5 200.5,160.167 200.5,161.5C 200.167,161.5 199.833,161.5 199.5,161.5C 198.833,201.5 198.167,241.5 197.5,281.5C 197.5,275.833 197.5,270.167 197.5,264.5C 197.174,229.427 197.507,194.427 198.5,159.5 Z"/></g>
<g><path style="opacity:0.999" fill="#c29844" d="M 241.5,242.5 C 241.5,242.833 241.5,243.167 241.5,243.5C 241.5,244.5 241.5,245.5 241.5,246.5C 240.352,247.895 239.352,247.728 238.5,246C 231.069,245.85 223.735,245.017 216.5,243.5C 213.776,243.046 211.943,244.046 211,246.5C 210.506,244.866 210.34,243.199 210.5,241.5C 210.343,240.127 210.51,238.793 211,237.5C 214.031,237.849 217.198,237.849 220.5,237.5C 226.549,239.22 232.549,240.054 238.5,240C 239.078,241.417 240.078,242.25 241.5,242.5 Z"/></g>
<g><path style="opacity:0.996" fill="#f1f1db" d="M 245.5,235.5 C 247.428,237.781 248.428,240.447 248.5,243.5C 247.566,244.568 247.232,245.901 247.5,247.5C 247.5,248.5 247.5,249.5 247.5,250.5C 245.908,251.602 245.075,250.935 245,248.5C 244.027,250.392 243.36,252.392 243,254.5C 242.5,265.828 242.333,277.162 242.5,288.5C 242.167,288.5 241.833,288.5 241.5,288.5C 241.5,277.833 241.5,267.167 241.5,256.5C 241.5,255.167 241.5,253.833 241.5,252.5C 241.5,251.167 241.5,249.833 241.5,248.5C 241.5,247.833 241.5,247.167 241.5,246.5C 241.5,245.5 241.5,244.5 241.5,243.5C 242.166,240.642 242.833,237.642 243.5,234.5C 244.183,234.863 244.85,235.196 245.5,235.5 Z"/></g>
<g><path style="opacity:0.997" fill="#d8ab4e" d="M 298.5,241.5 C 301.516,244.52 304.183,247.854 306.5,251.5C 302.707,250.696 298.874,249.696 295,248.5C 291.614,249.087 288.28,249.754 285,250.5C 282.148,250.752 279.148,250.418 276,249.5C 271.873,250.239 267.706,250.739 263.5,251C 264.654,251.914 264.487,252.747 263,253.5C 261.6,252.252 260.1,251.252 258.5,250.5C 256.147,248.14 254.147,245.473 252.5,242.5C 256.177,243.085 259.843,243.752 263.5,244.5C 266.291,242.96 268.791,243.294 271,245.5C 277.864,242.6 285.031,242.267 292.5,244.5C 295.047,244.229 297.047,243.229 298.5,241.5 Z"/></g>
<g><path style="opacity:0.997" fill="#a58039" d="M 209.5,241.5 C 209.833,241.5 210.167,241.5 210.5,241.5C 210.34,243.199 210.506,244.866 211,246.5C 211.943,244.046 213.776,243.046 216.5,243.5C 223.735,245.017 231.069,245.85 238.5,246C 239.352,247.728 240.352,247.895 241.5,246.5C 241.5,247.167 241.5,247.833 241.5,248.5C 239.108,249.713 236.441,250.379 233.5,250.5C 226.624,250.136 219.791,249.469 213,248.5C 211.69,249.13 210.856,250.13 210.5,251.5C 210.167,251.5 209.833,251.5 209.5,251.5C 209.5,249.5 209.5,247.5 209.5,245.5C 209.5,244.167 209.5,242.833 209.5,241.5 Z"/></g>
<g><path style="opacity:0.969" fill="#0d3543" d="M 181.5,180.5 C 182.49,186.31 182.823,192.31 182.5,198.5C 181.501,237.996 181.168,277.663 181.5,317.5C 202.5,317.5 223.5,317.5 244.5,317.5C 248.167,317.5 251.833,317.5 255.5,317.5C 230.5,318.167 205.5,318.833 180.5,319.5C 179.502,287.004 179.168,254.338 179.5,221.5C 180.633,208.011 181.299,194.345 181.5,180.5 Z"/></g>
<g><path style="opacity:0.997" fill="#926d2a" d="M 337.5,230.5 C 338.468,232.607 338.802,234.941 338.5,237.5C 338.042,240.394 338.709,242.894 340.5,245C 345.668,245.353 350.835,245.186 356,244.5C 358.625,244.581 360.959,245.248 363,246.5C 366.73,245.54 370.563,245.207 374.5,245.5C 374.232,247.099 374.566,248.432 375.5,249.5C 375.5,252.5 375.5,255.5 375.5,258.5C 374.532,256.393 374.198,254.059 374.5,251.5C 362.829,251.667 351.162,251.5 339.5,251C 340.696,250.346 340.696,249.846 339.5,249.5C 338.702,249.957 338.369,250.624 338.5,251.5C 338.167,251.5 337.833,251.5 337.5,251.5C 337.5,244.5 337.5,237.5 337.5,230.5 Z"/></g>
<g><path style="opacity:0.997" fill="#f8f6c5" d="M 245.5,235.5 C 247.167,236.833 248.833,238.167 250.5,239.5C 250.427,241.027 251.094,242.027 252.5,242.5C 254.147,245.473 256.147,248.14 258.5,250.5C 261.025,254.896 264.025,258.896 267.5,262.5C 268.604,264.389 269.937,266.055 271.5,267.5C 271.5,268.167 271.5,268.833 271.5,269.5C 272.051,272.267 273.384,274.6 275.5,276.5C 274.3,277.292 272.967,277.292 271.5,276.5C 266.488,269.795 261.488,263.128 256.5,256.5C 253.833,252.167 251.167,247.833 248.5,243.5C 248.428,240.447 247.428,237.781 245.5,235.5 Z"/></g>
<g><path style="opacity:0.998" fill="#8c6a2e" d="M 241.5,248.5 C 241.5,249.833 241.5,251.167 241.5,252.5C 240.522,252.811 239.855,253.478 239.5,254.5C 231.628,255.525 223.795,255.192 216,253.5C 213.594,254.531 211.761,253.864 210.5,251.5C 210.856,250.13 211.69,249.13 213,248.5C 219.791,249.469 226.624,250.136 233.5,250.5C 236.441,250.379 239.108,249.713 241.5,248.5 Z"/></g>
<g><path style="opacity:0.999" fill="#fafefc" d="M 247.5,250.5 C 247.5,251.5 247.5,252.5 247.5,253.5C 246.669,266.327 246.169,279.327 246,292.5C 245.241,290.937 244.074,289.937 242.5,289.5C 242.5,289.167 242.5,288.833 242.5,288.5C 242.333,277.162 242.5,265.828 243,254.5C 243.36,252.392 244.027,250.392 245,248.5C 245.075,250.935 245.908,251.602 247.5,250.5 Z"/></g>
<g><path style="opacity:0.996" fill="#c59a44" d="M 306.5,251.5 C 308.226,253.228 309.559,255.228 310.5,257.5C 309.069,256.918 307.736,256.085 306.5,255C 298.143,253.336 289.81,253.503 281.5,255.5C 276.386,254.942 271.053,254.608 265.5,254.5C 266.167,257.167 266.833,259.833 267.5,262.5C 264.025,258.896 261.025,254.896 258.5,250.5C 260.1,251.252 261.6,252.252 263,253.5C 264.487,252.747 264.654,251.914 263.5,251C 267.706,250.739 271.873,250.239 276,249.5C 279.148,250.418 282.148,250.752 285,250.5C 288.28,249.754 291.614,249.087 295,248.5C 298.874,249.696 302.707,250.696 306.5,251.5 Z"/></g>
<g><path style="opacity:0.992" fill="#c8a94f" d="M 376.5,161.5 C 376.5,161.167 376.5,160.833 376.5,160.5C 378.497,232.826 379.164,305.492 378.5,378.5C 378.167,378.5 377.833,378.5 377.5,378.5C 377.5,329.833 377.5,281.167 377.5,232.5C 377.831,208.661 377.498,184.994 376.5,161.5 Z"/></g>
<g><path style="opacity:0.984" fill="#2b2f25" d="M 248.5,243.5 C 251.167,247.833 253.833,252.167 256.5,256.5C 258.119,261.167 260.286,265.5 263,269.5C 265.578,272.329 267.911,275.329 270,278.5C 270.608,280.154 271.108,281.821 271.5,283.5C 265.063,276.061 259.397,268.061 254.5,259.5C 253.4,258.395 252.733,257.062 252.5,255.5C 252.137,253.223 251.137,252.556 249.5,253.5C 248.831,251.369 248.165,249.369 247.5,247.5C 247.232,245.901 247.566,244.568 248.5,243.5 Z"/></g>
<g><path style="opacity:0.006" fill="#010308" d="M 252.5,255.5 C 252.733,257.062 253.4,258.395 254.5,259.5C 253.833,264.833 253.167,270.167 252.5,275.5C 252.819,270.637 252.486,265.97 251.5,261.5C 251.205,259.265 251.539,257.265 252.5,255.5 Z"/></g>
<g><path style="opacity:1" fill="#f5f2a5" d="M 271.5,203.5 C 272.5,203.5 273.5,203.5 274.5,203.5C 274.088,205.973 275.088,207.306 277.5,207.5C 295.573,229.752 312.74,252.752 329,276.5C 329.69,277.738 330.19,277.738 330.5,276.5C 331.167,276.5 331.5,276.833 331.5,277.5C 331.253,284.018 333.253,285.351 337.5,281.5C 337.823,285.226 337.489,288.893 336.5,292.5C 335.817,292.137 335.15,291.804 334.5,291.5C 332.262,286.929 329.262,282.929 325.5,279.5C 324.559,277.228 323.226,275.228 321.5,273.5C 320.396,271.611 319.063,269.945 317.5,268.5C 316.66,266.147 315.326,264.147 313.5,262.5C 312.925,260.589 311.925,258.922 310.5,257.5C 309.559,255.228 308.226,253.228 306.5,251.5C 304.183,247.854 301.516,244.52 298.5,241.5C 298.262,239.596 297.262,238.262 295.5,237.5C 293.6,233.268 290.933,229.601 287.5,226.5C 284.741,221.974 281.741,217.641 278.5,213.5C 276.192,210.185 273.859,206.851 271.5,203.5 Z"/></g>
<g><path style="opacity:0.996" fill="#81c4d0" d="M 178.5,183.5 C 178.833,183.5 179.167,183.5 179.5,183.5C 179.5,196.167 179.5,208.833 179.5,221.5C 179.168,254.338 179.502,287.004 180.5,319.5C 214.337,319.168 248.004,319.502 281.5,320.5C 247.167,320.5 212.833,320.5 178.5,320.5C 178.5,274.833 178.5,229.167 178.5,183.5 Z"/></g>
<g><path style="opacity:0.997" fill="#ae8537" d="M 310.5,257.5 C 311.925,258.922 312.925,260.589 313.5,262.5C 299.609,261.736 285.776,261.736 272,262.5C 270.274,263.648 270.441,264.815 272.5,266C 271.944,266.383 271.611,266.883 271.5,267.5C 269.937,266.055 268.604,264.389 267.5,262.5C 266.833,259.833 266.167,257.167 265.5,254.5C 271.053,254.608 276.386,254.942 281.5,255.5C 289.81,253.503 298.143,253.336 306.5,255C 307.736,256.085 309.069,256.918 310.5,257.5 Z"/></g>
<g><path style="opacity:0.998" fill="#705421" d="M 209.5,251.5 C 209.833,251.5 210.167,251.5 210.5,251.5C 211.761,253.864 213.594,254.531 216,253.5C 223.795,255.192 231.628,255.525 239.5,254.5C 239.855,253.478 240.522,252.811 241.5,252.5C 241.5,253.833 241.5,255.167 241.5,256.5C 240.776,258.218 240.109,260.052 239.5,262C 229.501,261.834 219.501,261.334 209.5,260.5C 209.5,257.5 209.5,254.5 209.5,251.5 Z"/></g>
<g><path style="opacity:0.999" fill="#74541b" d="M 375.5,258.5 C 375.5,262.167 375.5,265.833 375.5,269.5C 374.662,269.158 374.328,268.492 374.5,267.5C 374.5,265.167 374.5,262.833 374.5,260.5C 363.544,261.038 352.211,261.205 340.5,261C 338.656,258.196 337.989,255.03 338.5,251.5C 338.369,250.624 338.702,249.957 339.5,249.5C 340.696,249.846 340.696,250.346 339.5,251C 351.162,251.5 362.829,251.667 374.5,251.5C 374.198,254.059 374.532,256.393 375.5,258.5 Z"/></g>
<g><path style="opacity:0.998" fill="#5c4820" d="M 209.5,245.5 C 209.5,247.5 209.5,249.5 209.5,251.5C 209.5,254.5 209.5,257.5 209.5,260.5C 219.501,261.334 229.501,261.834 239.5,262C 240.109,260.052 240.776,258.218 241.5,256.5C 241.5,267.167 241.5,277.833 241.5,288.5C 241.167,288.5 240.833,288.5 240.5,288.5C 240.5,283.5 240.5,278.5 240.5,273.5C 240.5,271.167 240.5,268.833 240.5,266.5C 231.175,266.438 222.008,265.438 213,263.5C 211.887,264.305 210.721,264.972 209.5,265.5C 209.737,264.209 209.404,263.209 208.5,262.5C 208.178,256.642 208.511,250.975 209.5,245.5 Z"/></g>
<g><path style="opacity:0.998" fill="#5d3f10" d="M 337.5,251.5 C 337.833,251.5 338.167,251.5 338.5,251.5C 337.989,255.03 338.656,258.196 340.5,261C 352.211,261.205 363.544,261.038 374.5,260.5C 374.5,262.833 374.5,265.167 374.5,267.5C 373.234,268.09 371.901,268.59 370.5,269C 362.13,269.434 353.963,269.601 346,269.5C 342.644,269.17 340.311,267.503 339,264.5C 338.51,265.793 338.343,267.127 338.5,268.5C 338.167,268.5 337.833,268.5 337.5,268.5C 337.5,262.833 337.5,257.167 337.5,251.5 Z"/></g>
<g><path style="opacity:0.999" fill="#936d29" d="M 313.5,262.5 C 315.326,264.147 316.66,266.147 317.5,268.5C 313.631,267.67 309.464,268.003 305,269.5C 304,269.167 303,268.833 302,268.5C 294.637,269.246 287.303,270.246 280,271.5C 279,271.167 278,270.833 277,270.5C 277.135,272.425 277.302,274.425 277.5,276.5C 275.5,274.167 273.5,271.833 271.5,269.5C 271.5,268.833 271.5,268.167 271.5,267.5C 271.611,266.883 271.944,266.383 272.5,266C 270.441,264.815 270.274,263.648 272,262.5C 285.776,261.736 299.609,261.736 313.5,262.5 Z"/></g>
<g><path style="opacity:0.998" fill="#7f5b1e" d="M 317.5,268.5 C 319.063,269.945 320.396,271.611 321.5,273.5C 318.881,273.768 316.381,273.435 314,272.5C 305.72,273.977 297.054,274.977 288,275.5C 285.5,275.833 283,276.167 280.5,276.5C 280.137,277.183 279.804,277.85 279.5,278.5C 278.5,278.167 277.833,277.5 277.5,276.5C 277.302,274.425 277.135,272.425 277,270.5C 278,270.833 279,271.167 280,271.5C 287.303,270.246 294.637,269.246 302,268.5C 303,268.833 304,269.167 305,269.5C 309.464,268.003 313.631,267.67 317.5,268.5 Z"/></g>
<g><path style="opacity:0.999" fill="#483006" d="M 374.5,267.5 C 374.328,268.492 374.662,269.158 375.5,269.5C 375.5,285.833 375.5,302.167 375.5,318.5C 375.167,318.5 374.833,318.5 374.5,318.5C 374.5,314.833 374.5,311.167 374.5,307.5C 374.5,302.5 374.5,297.5 374.5,292.5C 374.5,288.5 374.5,284.5 374.5,280.5C 374.662,278.473 374.495,276.473 374,274.5C 363.155,274.747 352.322,275.247 341.5,276C 339.047,274.152 338.047,271.652 338.5,268.5C 338.343,267.127 338.51,265.793 339,264.5C 340.311,267.503 342.644,269.17 346,269.5C 353.963,269.601 362.13,269.434 370.5,269C 371.901,268.59 373.234,268.09 374.5,267.5 Z"/></g>
<g><path style="opacity:0.999" fill="#6c4b15" d="M 321.5,273.5 C 323.226,275.228 324.559,277.228 325.5,279.5C 323.867,278.055 322.034,276.721 320,275.5C 316.917,276.639 313.917,277.972 311,279.5C 310.275,278.941 309.442,278.608 308.5,278.5C 300.537,279.764 292.537,280.764 284.5,281.5C 286.076,283.979 287.076,286.646 287.5,289.5C 284.102,286.373 281.435,282.707 279.5,278.5C 279.804,277.85 280.137,277.183 280.5,276.5C 283,276.167 285.5,275.833 288,275.5C 297.054,274.977 305.72,273.977 314,272.5C 316.381,273.435 318.881,273.768 321.5,273.5 Z"/></g>
<g><path style="opacity:0.884" fill="#111c22" d="M 172.5,77.5 C 172.013,78.4734 171.513,79.4734 171,80.5C 170.5,162.499 170.333,244.499 170.5,326.5C 169.667,245.001 169.167,163.334 169,81.5C 155.5,90.3333 142,99.1667 128.5,108C 126.603,109.265 125.27,110.931 124.5,113C 124.528,114.07 124.861,114.903 125.5,115.5C 125.167,194.668 125.501,273.668 126.5,352.5C 134.833,363.167 143.167,373.833 151.5,384.5C 151.5,385.167 151.833,385.5 152.5,385.5C 153.5,386.167 154.5,386.833 155.5,387.5C 154.209,387.263 153.209,387.596 152.5,388.5C 151.5,388.5 150.5,388.5 149.5,388.5C 138.853,377.351 129.519,365.185 121.5,352C 122.332,271.237 122.832,190.403 123,109.5C 139.131,98.1893 155.631,87.5226 172.5,77.5 Z"/></g>
<g><path style="opacity:0.996" fill="#91d3dd" d="M 127.5,114.5 C 128.167,115.5 128.833,116.5 129.5,117.5C 127.504,174.157 126.837,231.157 127.5,288.5C 127.167,288.5 126.833,288.5 126.5,288.5C 126.168,230.331 126.501,172.331 127.5,114.5 Z"/></g>
<g><path style="opacity:0.996" fill="#1f6a7a" d="M 199.5,161.5 C 199.833,161.5 200.167,161.5 200.5,161.5C 200.5,162.167 200.5,162.833 200.5,163.5C 200.5,208.5 200.5,253.5 200.5,298.5C 216.5,298.5 232.5,298.5 248.5,298.5C 248.5,298.833 248.5,299.167 248.5,299.5C 232.167,299.5 215.833,299.5 199.5,299.5C 199.5,253.5 199.5,207.5 199.5,161.5 Z"/></g>
<g><path style="opacity:0.34" fill="#475154" d="M 196.5,264.5 C 196.833,264.5 197.167,264.5 197.5,264.5C 197.5,270.167 197.5,275.833 197.5,281.5C 197.5,288.167 197.5,294.833 197.5,301.5C 213.009,301.17 228.342,301.504 243.5,302.5C 227.833,302.5 212.167,302.5 196.5,302.5C 196.5,289.833 196.5,277.167 196.5,264.5 Z"/></g>
<g><path style="opacity:1" fill="#54370b" d="M 325.5,279.5 C 329.262,282.929 332.262,286.929 334.5,291.5C 331.457,289.107 328.624,286.441 326,283.5C 320.433,287.242 314.099,288.242 307,286.5C 306.261,287.574 305.261,288.241 304,288.5C 299.335,288.333 294.502,288.333 289.5,288.5C 290.449,290.737 291.116,293.071 291.5,295.5C 289.782,293.777 288.449,291.777 287.5,289.5C 287.076,286.646 286.076,283.979 284.5,281.5C 292.537,280.764 300.537,279.764 308.5,278.5C 309.442,278.608 310.275,278.941 311,279.5C 313.917,277.972 316.917,276.639 320,275.5C 322.034,276.721 323.867,278.055 325.5,279.5 Z"/></g>
<g><path style="opacity:0.999" fill="#301c02" d="M 374.5,280.5 C 374.5,284.5 374.5,288.5 374.5,292.5C 370.736,293.118 367.069,292.451 363.5,290.5C 356.634,292.177 349.801,293.844 343,295.5C 342.667,295.167 342.333,294.833 342,294.5C 333.24,299.559 323.574,303.559 313,306.5C 312.667,306.167 312.333,305.833 312,305.5C 311.333,306.833 310.333,307.833 309,308.5C 307.701,308.034 306.201,308.034 304.5,308.5C 304.5,309.833 304.5,311.167 304.5,312.5C 302.025,310.23 300.025,307.563 298.5,304.5C 298.151,301.955 298.984,299.955 301,298.5C 301.414,298.957 301.914,299.291 302.5,299.5C 310.393,297.775 317.893,295.775 325,293.5C 329.044,293.53 333.044,293.863 337,294.5C 339.35,292.804 339.85,290.471 338.5,287.5C 338.347,282.243 340.347,281.243 344.5,284.5C 348.71,284.078 352.71,283.078 356.5,281.5C 357.086,281.709 357.586,282.043 358,282.5C 363.67,281.551 369.17,280.885 374.5,280.5 Z"/></g>
<g><path style="opacity:1" fill="#412805" d="M 337.5,268.5 C 337.833,268.5 338.167,268.5 338.5,268.5C 338.047,271.652 339.047,274.152 341.5,276C 352.322,275.247 363.155,274.747 374,274.5C 374.495,276.473 374.662,278.473 374.5,280.5C 369.17,280.885 363.67,281.551 358,282.5C 357.586,282.043 357.086,281.709 356.5,281.5C 352.71,283.078 348.71,284.078 344.5,284.5C 340.347,281.243 338.347,282.243 338.5,287.5C 339.85,290.471 339.35,292.804 337,294.5C 333.044,293.863 329.044,293.53 325,293.5C 317.893,295.775 310.393,297.775 302.5,299.5C 301.914,299.291 301.414,298.957 301,298.5C 298.984,299.955 298.151,301.955 298.5,304.5C 295.815,301.81 293.482,298.81 291.5,295.5C 291.116,293.071 290.449,290.737 289.5,288.5C 294.502,288.333 299.335,288.333 304,288.5C 305.261,288.241 306.261,287.574 307,286.5C 314.099,288.242 320.433,287.242 326,283.5C 328.624,286.441 331.457,289.107 334.5,291.5C 335.15,291.804 335.817,292.137 336.5,292.5C 337.489,288.893 337.823,285.226 337.5,281.5C 337.5,277.167 337.5,272.833 337.5,268.5 Z"/></g>
<g><path style="opacity:0.894" fill="#343621" d="M 256.5,256.5 C 261.488,263.128 266.488,269.795 271.5,276.5C 281.913,290.24 291.913,304.24 301.5,318.5C 299.33,316.914 296.996,315.58 294.5,314.5C 286.455,304.454 278.788,294.121 271.5,283.5C 271.108,281.821 270.608,280.154 270,278.5C 267.911,275.329 265.578,272.329 263,269.5C 260.286,265.5 258.119,261.167 256.5,256.5 Z"/></g>
<g><path style="opacity:0.996" fill="#d6fefe" d="M 247.5,253.5 C 247.5,255.167 247.5,256.833 247.5,258.5C 247.667,270.838 247.5,283.171 247,295.5C 243.347,291.477 242.847,291.811 245.5,296.5C 231.5,297.833 217.5,297.833 203.5,296.5C 204.648,294.851 205.981,293.351 207.5,292C 219.543,292.15 231.21,291.316 242.5,289.5C 244.074,289.937 245.241,290.937 246,292.5C 246.169,279.327 246.669,266.327 247.5,253.5 Z"/></g>
<g><path style="opacity:0.996" fill="#0a444f" d="M 127.5,114.5 C 126.501,172.331 126.168,230.331 126.5,288.5C 126.5,309.833 126.5,331.167 126.5,352.5C 125.501,273.668 125.167,194.668 125.5,115.5C 125.711,113.576 126.377,113.243 127.5,114.5 Z"/></g>
<g><path style="opacity:0.996" fill="#265d72" d="M 247.5,247.5 C 248.165,249.369 248.831,251.369 249.5,253.5C 251.137,252.556 252.137,253.223 252.5,255.5C 251.539,257.265 251.205,259.265 251.5,261.5C 251.667,273.838 251.5,286.171 251,298.5C 250.667,298.167 250.333,297.833 250,297.5C 249.722,298.416 249.222,299.082 248.5,299.5C 248.5,299.167 248.5,298.833 248.5,298.5C 248.829,284.99 248.496,271.656 247.5,258.5C 247.5,256.833 247.5,255.167 247.5,253.5C 247.5,252.5 247.5,251.5 247.5,250.5C 247.5,249.5 247.5,248.5 247.5,247.5 Z"/></g>
<g><path style="opacity:0.998" fill="#241301" d="M 374.5,292.5 C 374.5,297.5 374.5,302.5 374.5,307.5C 373.542,307.047 372.708,306.381 372,305.5C 371.667,306.167 371.333,306.833 371,307.5C 366.572,304.236 361.739,303.736 356.5,306C 354.253,307.773 352.086,309.606 350,311.5C 349.667,310.833 349.333,310.167 349,309.5C 347.946,311.754 346.446,312.087 344.5,310.5C 343.833,311.5 343.167,312.5 342.5,313.5C 341.468,311.96 340.135,311.46 338.5,312C 338.833,312.333 339.167,312.667 339.5,313C 336.161,313.861 332.994,314.361 330,314.5C 328.067,318.179 326.4,318.179 325,314.5C 324.503,317.55 323.003,318.55 320.5,317.5C 318.149,319.229 315.482,319.896 312.5,319.5C 313.449,321.737 314.116,324.071 314.5,326.5C 310.688,322.223 307.355,317.557 304.5,312.5C 304.5,311.167 304.5,309.833 304.5,308.5C 306.201,308.034 307.701,308.034 309,308.5C 310.333,307.833 311.333,306.833 312,305.5C 312.333,305.833 312.667,306.167 313,306.5C 323.574,303.559 333.24,299.559 342,294.5C 342.333,294.833 342.667,295.167 343,295.5C 349.801,293.844 356.634,292.177 363.5,290.5C 367.069,292.451 370.736,293.118 374.5,292.5 Z"/></g>
<g><path style="opacity:0.996" fill="#9ae2ed" d="M 200.5,163.5 C 201.499,206.663 201.832,249.997 201.5,293.5C 203.947,293.385 205.947,292.385 207.5,290.5C 219.216,291.144 230.549,290.478 241.5,288.5C 241.833,288.5 242.167,288.5 242.5,288.5C 242.5,288.833 242.5,289.167 242.5,289.5C 231.21,291.316 219.543,292.15 207.5,292C 205.981,293.351 204.648,294.851 203.5,296.5C 217.5,297.833 231.5,297.833 245.5,296.5C 242.847,291.811 243.347,291.477 247,295.5C 247.5,283.171 247.667,270.838 247.5,258.5C 248.496,271.656 248.829,284.99 248.5,298.5C 232.5,298.5 216.5,298.5 200.5,298.5C 200.5,253.5 200.5,208.5 200.5,163.5 Z"/></g>
<g><path style="opacity:0.945" fill="#11323d" d="M 199.5,161.5 C 199.5,207.5 199.5,253.5 199.5,299.5C 215.833,299.5 232.167,299.5 248.5,299.5C 249.222,299.082 249.722,298.416 250,297.5C 250.333,297.833 250.667,298.167 251,298.5C 251.5,286.171 251.667,273.838 251.5,261.5C 252.486,265.97 252.819,270.637 252.5,275.5C 252.197,283.889 252.53,292.222 253.5,300.5C 253.145,301.522 252.478,302.189 251.5,302.5C 248.833,302.5 246.167,302.5 243.5,302.5C 228.342,301.504 213.009,301.17 197.5,301.5C 197.5,294.833 197.5,288.167 197.5,281.5C 198.167,241.5 198.833,201.5 199.5,161.5 Z"/></g>
<g><path style="opacity:0.996" fill="#375759" d="M 207.5,263.5 C 207.833,263.5 208.167,263.5 208.5,263.5C 208.5,272.167 208.5,280.833 208.5,289.5C 219.346,289.828 230.013,289.494 240.5,288.5C 240.833,288.5 241.167,288.5 241.5,288.5C 230.549,290.478 219.216,291.144 207.5,290.5C 207.5,281.5 207.5,272.5 207.5,263.5 Z"/></g>
<g><path style="opacity:0.996" fill="#272413" d="M 208.5,262.5 C 209.404,263.209 209.737,264.209 209.5,265.5C 209.19,268.713 209.523,271.713 210.5,274.5C 210.5,278.833 210.5,283.167 210.5,287.5C 219.833,287.5 229.167,287.5 238.5,287.5C 238.927,283.176 239.261,278.842 239.5,274.5C 239.5,273.833 239.833,273.5 240.5,273.5C 240.5,278.5 240.5,283.5 240.5,288.5C 230.013,289.494 219.346,289.828 208.5,289.5C 208.5,280.833 208.5,272.167 208.5,263.5C 208.5,263.167 208.5,262.833 208.5,262.5 Z"/></g>
<g><path style="opacity:0.999" fill="#301f08" d="M 239.5,274.5 C 239.261,278.842 238.927,283.176 238.5,287.5C 229.167,287.5 219.833,287.5 210.5,287.5C 210.5,283.167 210.5,278.833 210.5,274.5C 210.47,273.503 210.97,272.836 212,272.5C 220.846,272.859 230.013,273.525 239.5,274.5 Z"/></g>
<g><path style="opacity:0.997" fill="#48310f" d="M 240.5,273.5 C 239.833,273.5 239.5,273.833 239.5,274.5C 230.013,273.525 220.846,272.859 212,272.5C 210.97,272.836 210.47,273.503 210.5,274.5C 209.523,271.713 209.19,268.713 209.5,265.5C 210.721,264.972 211.887,264.305 213,263.5C 222.008,265.438 231.175,266.438 240.5,266.5C 240.5,268.833 240.5,271.167 240.5,273.5 Z"/></g>
<g><path style="opacity:0.999" fill="#010811" d="M 135.5,119.5 C 137.302,120.315 138.302,121.815 138.5,124C 137.403,196.717 137.237,269.55 138,342.5C 138.153,349.805 140.986,355.805 146.5,360.5C 147.513,363.188 148.513,365.854 149.5,368.5C 145.362,364.235 141.695,359.569 138.5,354.5C 138.291,353.078 137.791,351.745 137,350.5C 136.827,273.46 136.327,196.46 135.5,119.5 Z"/></g>
<g><path style="opacity:0.016" fill="#000000" d="M 191.5,308.5 C 198.532,308.17 205.532,308.503 212.5,309.5C 211.788,311.046 210.622,312.046 209,312.5C 206.101,311.936 203.101,311.936 200,312.5C 198.167,312.333 196.333,312.167 194.5,312C 192.574,311.578 191.574,310.411 191.5,308.5 Z"/></g>
<g><path style="opacity:0.996" fill="#faef92" d="M 377.5,232.5 C 377.5,281.167 377.5,329.833 377.5,378.5C 377.5,382.833 377.5,387.167 377.5,391.5C 377.167,391.5 376.833,391.5 376.5,391.5C 376.831,369.66 376.497,347.994 375.5,326.5C 375.5,323.833 375.5,321.167 375.5,318.5C 375.5,302.167 375.5,285.833 375.5,269.5C 375.5,265.833 375.5,262.167 375.5,258.5C 375.5,255.5 375.5,252.5 375.5,249.5C 375.5,246.833 375.5,244.167 375.5,241.5C 375.5,238.833 375.5,236.167 375.5,233.5C 376.167,233.167 376.833,232.833 377.5,232.5 Z"/></g>
<g><path style="opacity:0.306" fill="#36464c" d="M 194.5,316.5 C 223.329,315.502 252.329,315.169 281.5,315.5C 282.822,315.33 283.989,315.663 285,316.5C 287.437,319.72 289.603,323.053 291.5,326.5C 292.833,328.167 292.833,329.833 291.5,331.5C 288.939,329.36 286.605,327.027 284.5,324.5C 284.267,322.938 283.6,321.605 282.5,320.5C 282.804,319.85 283.137,319.183 283.5,318.5C 274.19,317.502 264.857,317.168 255.5,317.5C 251.833,317.5 248.167,317.5 244.5,317.5C 228.008,316.503 211.342,316.17 194.5,316.5 Z"/></g>
<g><path style="opacity:0.998" fill="#180900" d="M 374.5,307.5 C 374.5,311.167 374.5,314.833 374.5,318.5C 374.5,324.167 374.5,329.833 374.5,335.5C 373.686,333.369 373.186,331.036 373,328.5C 371.191,328.011 369.357,327.677 367.5,327.5C 368.833,326.38 369.333,325.047 369,323.5C 368.667,323.833 368.333,324.167 368,324.5C 367.481,323.484 366.647,322.818 365.5,322.5C 364.137,323.198 362.971,323.198 362,322.5C 360.933,323.191 359.766,323.691 358.5,324C 358.833,324.333 359.167,324.667 359.5,325C 356.833,326 356.833,327 359.5,328C 357.833,329.167 356.167,330.333 354.5,331.5C 353.808,330.975 353.308,330.308 353,329.5C 351.684,330.974 350.684,332.641 350,334.5C 349.641,331.456 348.974,331.122 348,333.5C 345.408,333.399 342.741,333.066 340,332.5C 339.692,333.308 339.192,333.975 338.5,334.5C 337.5,333.833 336.5,333.167 335.5,332.5C 332.772,333.145 330.105,333.979 327.5,335C 330.946,335.704 330.946,337.037 327.5,339C 328.423,341.041 328.756,343.208 328.5,345.5C 325.261,342.017 322.261,338.35 319.5,334.5C 317.833,331.833 316.167,329.167 314.5,326.5C 314.116,324.071 313.449,321.737 312.5,319.5C 315.482,319.896 318.149,319.229 320.5,317.5C 323.003,318.55 324.503,317.55 325,314.5C 326.4,318.179 328.067,318.179 330,314.5C 332.994,314.361 336.161,313.861 339.5,313C 339.167,312.667 338.833,312.333 338.5,312C 340.135,311.46 341.468,311.96 342.5,313.5C 343.167,312.5 343.833,311.5 344.5,310.5C 346.446,312.087 347.946,311.754 349,309.5C 349.333,310.167 349.667,310.833 350,311.5C 352.086,309.606 354.253,307.773 356.5,306C 361.739,303.736 366.572,304.236 371,307.5C 371.333,306.833 371.667,306.167 372,305.5C 372.708,306.381 373.542,307.047 374.5,307.5 Z"/></g>
<g><path style="opacity:0.841" fill="#586a73" d="M 182.5,198.5 C 182.5,237.833 182.5,277.167 182.5,316.5C 186.5,316.5 190.5,316.5 194.5,316.5C 211.342,316.17 228.008,316.503 244.5,317.5C 223.5,317.5 202.5,317.5 181.5,317.5C 181.168,277.663 181.501,237.996 182.5,198.5 Z"/></g>
<g><path style="opacity:0.983" fill="#583900" d="M 376.5,160.5 C 377.209,159.596 378.209,159.263 379.5,159.5C 379.833,245.668 379.499,331.668 378.5,417.5C 378.5,404.5 378.5,391.5 378.5,378.5C 379.164,305.492 378.497,232.826 376.5,160.5 Z"/></g>
<g><path style="opacity:0.996" fill="#0b4d65" d="M 255.5,317.5 C 264.857,317.168 274.19,317.502 283.5,318.5C 283.137,319.183 282.804,319.85 282.5,320.5C 282.167,320.5 281.833,320.5 281.5,320.5C 248.004,319.502 214.337,319.168 180.5,319.5C 205.5,318.833 230.5,318.167 255.5,317.5 Z"/></g>
<g><path style="opacity:0.729" fill="#6b5736" d="M 379.5,159.5 C 379.833,159.5 380.167,159.5 380.5,159.5C 380.833,246.836 380.5,334.169 379.5,421.5C 377.244,420.579 376.244,418.912 376.5,416.5C 377.167,416.833 377.833,417.167 378.5,417.5C 379.499,331.668 379.833,245.668 379.5,159.5 Z"/></g>
<g><path style="opacity:1" fill="#cdfdfd" d="M 284.5,324.5 C 286.605,327.027 288.939,329.36 291.5,331.5C 293.573,335.308 295.906,338.974 298.5,342.5C 299.545,345.114 300.045,347.78 300,350.5C 298.586,351.413 297.086,351.413 295.5,350.5C 295.167,350.5 294.833,350.5 294.5,350.5C 292.262,345.929 289.262,341.929 285.5,338.5C 283.565,334.293 280.898,330.627 277.5,327.5C 277.5,327.167 277.5,326.833 277.5,326.5C 244.917,325.986 212.251,325.152 179.5,324C 210.458,322.792 241.458,321.958 272.5,321.5C 275.5,321.667 278.5,321.833 281.5,322C 282.078,323.417 283.078,324.25 284.5,324.5 Z"/></g>
<g><path style="opacity:0.996" fill="#f2eda8" d="M 271.5,269.5 C 273.5,271.833 275.5,274.167 277.5,276.5C 277.833,277.5 278.5,278.167 279.5,278.5C 281.435,282.707 284.102,286.373 287.5,289.5C 288.449,291.777 289.782,293.777 291.5,295.5C 293.482,298.81 295.815,301.81 298.5,304.5C 300.025,307.563 302.025,310.23 304.5,312.5C 307.355,317.557 310.688,322.223 314.5,326.5C 316.167,329.167 317.833,331.833 319.5,334.5C 317.983,334.489 316.816,333.823 316,332.5C 315.616,334.197 315.782,335.863 316.5,337.5C 312.167,332.167 307.833,326.833 303.5,321.5C 303.573,319.973 302.906,318.973 301.5,318.5C 291.913,304.24 281.913,290.24 271.5,276.5C 272.967,277.292 274.3,277.292 275.5,276.5C 273.384,274.6 272.051,272.267 271.5,269.5 Z"/></g>
<g><path style="opacity:1" fill="#c6fefe" d="M 129.5,117.5 C 130.167,117.833 130.833,118.167 131.5,118.5C 132.167,119.5 132.833,120.5 133.5,121.5C 133.667,194.501 133.5,267.501 133,340.5C 130.542,348.477 128.875,348.81 128,341.5C 127.5,323.836 127.333,306.17 127.5,288.5C 126.837,231.157 127.504,174.157 129.5,117.5 Z"/></g>
<g><path style="opacity:0.996" fill="#033241" d="M 171.5,327.5 C 206.833,327.5 242.167,327.5 277.5,327.5C 280.898,330.627 283.565,334.293 285.5,338.5C 282.495,335.682 279.828,332.516 277.5,329C 241.998,328.833 206.664,328.333 171.5,327.5 Z"/></g>
<g><path style="opacity:0.996" fill="#010b13" d="M 170.5,327.5 C 170.833,327.5 171.167,327.5 171.5,327.5C 206.664,328.333 241.998,328.833 277.5,329C 279.828,332.516 282.495,335.682 285.5,338.5C 289.262,341.929 292.262,345.929 294.5,350.5C 293.115,349.386 291.615,348.386 290,347.5C 289.667,347.833 289.333,348.167 289,348.5C 288.487,346.479 287.32,344.979 285.5,344C 285.833,343.667 286.167,343.333 286.5,343C 285.333,342.5 284.5,341.667 284,340.5C 283.667,340.833 283.333,341.167 283,341.5C 281.456,337.782 278.956,334.782 275.5,332.5C 241.284,330.48 207.117,330.146 173,331.5C 171.519,330.529 170.685,329.196 170.5,327.5 Z"/></g>
<g><path style="opacity:0.992" fill="#162e32" d="M 291.5,326.5 C 306.924,346.34 322.59,366.007 338.5,385.5C 335.173,382.972 334.839,383.472 337.5,387C 322.17,387.5 306.837,387.667 291.5,387.5C 293.5,386.833 295.5,386.167 297.5,385.5C 309.505,385.667 321.505,385.5 333.5,385C 332.956,384.283 332.289,383.783 331.5,383.5C 320.249,369.977 309.249,356.31 298.5,342.5C 295.906,338.974 293.573,335.308 291.5,331.5C 292.833,329.833 292.833,328.167 291.5,326.5 Z"/></g>
<g><path style="opacity:1" fill="#aef5f8" d="M 133.5,121.5 C 134.333,197.666 134.833,273.999 135,350.5C 135.949,352.093 137.115,353.426 138.5,354.5C 141.695,359.569 145.362,364.235 149.5,368.5C 151.167,371.167 152.833,373.833 154.5,376.5C 208.335,377.831 262.335,377.831 316.5,376.5C 316.145,375.478 315.478,374.811 314.5,374.5C 314.167,373.5 313.5,372.833 312.5,372.5C 306.833,365.167 301.167,357.833 295.5,350.5C 297.086,351.413 298.586,351.413 300,350.5C 300.045,347.78 299.545,345.114 298.5,342.5C 309.249,356.31 320.249,369.977 331.5,383.5C 271.669,384.499 211.669,384.832 151.5,384.5C 143.167,373.833 134.833,363.167 126.5,352.5C 126.5,331.167 126.5,309.833 126.5,288.5C 126.833,288.5 127.167,288.5 127.5,288.5C 127.333,306.17 127.5,323.836 128,341.5C 128.875,348.81 130.542,348.477 133,340.5C 133.5,267.501 133.667,194.501 133.5,121.5 Z"/></g>
<g><path style="opacity:1" fill="#cbfefe" d="M 159.5,379.5 C 207.251,379.01 254.918,379.51 302.5,381C 298.584,382.102 294.584,382.769 290.5,383C 246.496,383.833 202.496,383.667 158.5,382.5C 159.127,381.583 159.461,380.583 159.5,379.5 Z"/></g>
<g><path style="opacity:1" fill="#154d53" d="M 314.5,374.5 C 315.478,374.811 316.145,375.478 316.5,376.5C 262.335,377.831 208.335,377.831 154.5,376.5C 208.177,377.162 261.51,376.496 314.5,374.5 Z"/></g>
<g><path style="opacity:0.998" fill="#021c22" d="M 149.5,368.5 C 153.874,368.874 156.207,371.207 156.5,375.5C 208.5,375.5 260.5,375.5 312.5,375.5C 312.5,374.5 312.5,373.5 312.5,372.5C 313.5,372.833 314.167,373.5 314.5,374.5C 261.51,376.496 208.177,377.162 154.5,376.5C 152.833,373.833 151.167,371.167 149.5,368.5 Z"/></g>
<g><path style="opacity:0.996" fill="#85d6dd" d="M 331.5,383.5 C 332.289,383.783 332.956,384.283 333.5,385C 321.505,385.5 309.505,385.667 297.5,385.5C 249.167,385.5 200.833,385.5 152.5,385.5C 151.833,385.5 151.5,385.167 151.5,384.5C 211.669,384.832 271.669,384.499 331.5,383.5 Z"/></g>
<g><path style="opacity:0.992" fill="#013341" d="M 152.5,385.5 C 200.833,385.5 249.167,385.5 297.5,385.5C 295.5,386.167 293.5,386.833 291.5,387.5C 246.167,387.5 200.833,387.5 155.5,387.5C 154.5,386.833 153.5,386.167 152.5,385.5 Z"/></g>
<g><path style="opacity:0.651" fill="#2c3b3f" d="M 338.5,385.5 C 338.5,386.5 338.5,387.5 338.5,388.5C 276.5,388.5 214.5,388.5 152.5,388.5C 153.209,387.596 154.209,387.263 155.5,387.5C 200.833,387.5 246.167,387.5 291.5,387.5C 306.837,387.667 322.17,387.5 337.5,387C 334.839,383.472 335.173,382.972 338.5,385.5 Z"/></g>
<g><path style="opacity:0.02" fill="#000000" d="M 338.5,385.5 C 339.954,386.52 340.287,387.687 339.5,389C 275.999,389.832 212.665,389.665 149.5,388.5C 150.5,388.5 151.5,388.5 152.5,388.5C 214.5,388.5 276.5,388.5 338.5,388.5C 338.5,387.5 338.5,386.5 338.5,385.5 Z"/></g>
<g><path style="opacity:0.859" fill="#231f13" d="M 380.5,159.5 C 381.277,235.501 381.944,311.667 382.5,388C 382.647,399.593 382.147,411.093 381,422.5C 379.127,423.089 377.46,422.422 376,420.5C 347.12,386.369 319.954,351.035 294.5,314.5C 296.996,315.58 299.33,316.914 301.5,318.5C 302.906,318.973 303.573,319.973 303.5,321.5C 303.491,323.308 303.991,324.975 305,326.5C 308.425,330.09 311.258,334.09 313.5,338.5C 314.86,339.18 316.193,339.847 317.5,340.5C 333.765,362.672 350.765,384.339 368.5,405.5C 370.529,407.858 372.529,410.192 374.5,412.5C 375.167,413.5 375.833,414.5 376.5,415.5C 376.5,415.833 376.5,416.167 376.5,416.5C 376.244,418.912 377.244,420.579 379.5,421.5C 380.5,334.169 380.833,246.836 380.5,159.5 Z"/></g>
<g><path style="opacity:0.996" fill="#241700" d="M 374.5,318.5 C 374.833,318.5 375.167,318.5 375.5,318.5C 375.5,321.167 375.5,323.833 375.5,326.5C 375.667,353.835 375.5,381.169 375,408.5C 374.283,407.956 373.783,407.289 373.5,406.5C 374.498,383.006 374.831,359.339 374.5,335.5C 374.5,329.833 374.5,324.167 374.5,318.5 Z"/></g>
<g><path style="opacity:1" fill="#0c0300" d="M 374.5,335.5 C 374.831,359.339 374.498,383.006 373.5,406.5C 372.527,404.861 371.194,403.527 369.5,402.5C 355.598,383.706 341.931,364.706 328.5,345.5C 328.756,343.208 328.423,341.041 327.5,339C 330.946,337.037 330.946,335.704 327.5,335C 330.105,333.979 332.772,333.145 335.5,332.5C 336.5,333.167 337.5,333.833 338.5,334.5C 339.192,333.975 339.692,333.308 340,332.5C 342.741,333.066 345.408,333.399 348,333.5C 348.974,331.122 349.641,331.456 350,334.5C 350.684,332.641 351.684,330.974 353,329.5C 353.308,330.308 353.808,330.975 354.5,331.5C 356.167,330.333 357.833,329.167 359.5,328C 356.833,327 356.833,326 359.5,325C 359.167,324.667 358.833,324.333 358.5,324C 359.766,323.691 360.933,323.191 362,322.5C 362.971,323.198 364.137,323.198 365.5,322.5C 366.647,322.818 367.481,323.484 368,324.5C 368.333,324.167 368.667,323.833 369,323.5C 369.333,325.047 368.833,326.38 367.5,327.5C 369.357,327.677 371.191,328.011 373,328.5C 373.186,331.036 373.686,333.369 374.5,335.5 Z"/></g>
<g><path style="opacity:0.996" fill="#eee38e" d="M 319.5,334.5 C 322.261,338.35 325.261,342.017 328.5,345.5C 341.931,364.706 355.598,383.706 369.5,402.5C 369.737,403.791 369.404,404.791 368.5,405.5C 350.765,384.339 333.765,362.672 317.5,340.5C 317.443,339.391 317.11,338.391 316.5,337.5C 315.782,335.863 315.616,334.197 316,332.5C 316.816,333.823 317.983,334.489 319.5,334.5 Z"/></g>
<g><path style="opacity:0.992" fill="#333114" d="M 303.5,321.5 C 307.833,326.833 312.167,332.167 316.5,337.5C 317.11,338.391 317.443,339.391 317.5,340.5C 316.193,339.847 314.86,339.18 313.5,338.5C 311.258,334.09 308.425,330.09 305,326.5C 303.991,324.975 303.491,323.308 303.5,321.5 Z"/></g>
<g><path style="opacity:0.996" fill="#a68431" d="M 377.5,378.5 C 377.833,378.5 378.167,378.5 378.5,378.5C 378.5,391.5 378.5,404.5 378.5,417.5C 377.833,417.167 377.167,416.833 376.5,416.5C 376.5,416.167 376.5,415.833 376.5,415.5C 377.492,407.684 377.826,399.684 377.5,391.5C 377.5,387.167 377.5,382.833 377.5,378.5 Z"/></g>
<g><path style="opacity:0.996" fill="#d8c273" d="M 375.5,326.5 C 376.497,347.994 376.831,369.66 376.5,391.5C 376.925,398.665 376.258,405.665 374.5,412.5C 372.529,410.192 370.529,407.858 368.5,405.5C 369.404,404.791 369.737,403.791 369.5,402.5C 371.194,403.527 372.527,404.861 373.5,406.5C 373.783,407.289 374.283,407.956 375,408.5C 375.5,381.169 375.667,353.835 375.5,326.5 Z"/></g>
<g><path style="opacity:0.996" fill="#ecc75b" d="M 376.5,391.5 C 376.833,391.5 377.167,391.5 377.5,391.5C 377.826,399.684 377.492,407.684 376.5,415.5C 375.833,414.5 375.167,413.5 374.5,412.5C 376.258,405.665 376.925,398.665 376.5,391.5 Z"/></g>
</svg>
